<?xml version="1.0" ?><svg width="24px" height="24px" viewBox="0 0 24 24" xmlns="http://www.w3.org/2000/svg"><defs><style>.cls-1{fill:#231f20;}</style></defs><title/><g id="Card"><path class="cls-1" d="M21,5H10V3A1,1,0,0,0,9,2H3A1,1,0,0,0,2,3V5.83A1,1,0,0,0,2,6V21a1,1,0,0,0,1,1H21a1,1,0,0,0,1-1V6A1,1,0,0,0,21,5ZM8,4V5H4V4ZM20,20H4V7H20Z"/><path class="cls-1" d="M11,18h2V17h.5a2.5,2.5,0,0,0,0-5h-3a.49.49,0,0,1-.48-.48V11.4a.48.48,0,0,1,.47-.48L16,11l0-2L13,9V8H11v.92h-.52A2.49,2.49,0,0,0,8,11.4v.11A2.49,2.49,0,0,0,10.48,14h3a.5.5,0,0,1,0,1H8v2h3Z"/></g></svg>